<?xml version="1.0" standalone="no"?>
<!DOCTYPE svg PUBLIC "-//W3C//DTD SVG 20010904//EN"
 "http://www.w3.org/TR/2001/REC-SVG-20010904/DTD/svg10.dtd">
<svg version="1.0" xmlns="http://www.w3.org/2000/svg"
 width="707.000000pt" height="707.000000pt" viewBox="0 0 707.000000 707.000000"
 preserveAspectRatio="xMidYMid meet">
<metadata>
Created by potrace 1.11, written by Peter Selinger 2001-2013
</metadata>
<g transform="translate(0.000000,707.000000) scale(0.100000,-0.100000)"
fill="#000000" stroke="none">
<path d="M4080 5971 c-224 -57 -407 -251 -449 -476 -9 -49 -7 -202 3 -248 13
-56 50 -143 84 -197 21 -34 242 -263 590 -612 513 -514 555 -559 554 -589 -1
-29 -57 -89 -555 -588 -535 -537 -601 -609 -642 -706 -28 -68 -45 -179 -41
-273 13 -261 199 -485 459 -551 154 -40 339 -11 475 75 38 24 328 308 862 842
443 444 816 821 828 837 36 47 71 129 93 212 15 60 18 99 15 182 -5 114 -19
170 -68 271 -29 59 -106 139 -867 901 -809 809 -838 837 -911 872 -41 20 -103
43 -137 51 -82 19 -212 17 -293 -3z m291 -306 c43 -22 209 -183 846 -820 898
-898 848 -839 848 -995 0 -156 50 -97 -849 -996 -695 -694 -802 -798 -851
-820 -207 -95 -446 52 -449 276 -1 75 17 141 53 190 14 19 270 280 568 579
299 299 554 562 568 585 63 110 66 245 8 360 -19 38 -162 187 -584 609 -629
630 -613 611 -613 747 0 62 4 85 27 132 81 166 270 233 428 153z"/>
<path d="M2696 5140 c-84 -22 -171 -63 -225 -107 -25 -21 -406 -397 -846 -838
-679 -679 -805 -809 -833 -862 -38 -72 -60 -132 -70 -188 -9 -53 -8 -221 1
-265 10 -46 8 -41 40 -123 30 -83 120 -179 871 -930 433 -433 806 -802 829
-821 34 -27 116 -76 137 -81 3 -1 16 -6 30 -12 89 -38 230 -45 360 -18 28 5
96 34 143 59 119 63 218 175 270 306 33 84 38 107 43 209 6 131 -30 255 -106
366 -16 23 -276 288 -578 591 -543 543 -557 559 -553 614 1 8 257 271 569 585
547 548 570 573 604 645 55 115 63 150 62 285 0 206 -97 386 -271 501 -133 88
-328 122 -477 84z"/>
</g>
</svg>
