<?xml version="1.0" standalone="no"?>
<!DOCTYPE svg PUBLIC "-//W3C//DTD SVG 20010904//EN"
 "http://www.w3.org/TR/2001/REC-SVG-20010904/DTD/svg10.dtd">
<svg version="1.0" xmlns="http://www.w3.org/2000/svg"
 width="707.000000pt" height="707.000000pt" viewBox="0 0 707.000000 707.000000"
 preserveAspectRatio="xMidYMid meet">
<metadata>
Created by potrace 1.11, written by Peter Selinger 2001-2013
</metadata>
<g transform="translate(0.000000,707.000000) scale(0.100000,-0.100000)"
fill="#000000" stroke="none">
<path d="M0 3535 l0 -3535 3535 0 3535 0 0 3535 0 3535 -3535 0 -3535 0 0
-3535z m4411 2416 c136 -43 136 -43 1012 -920 806 -807 826 -828 860 -901 47
-101 62 -167 61 -280 0 -115 -15 -181 -62 -280 -34 -73 -58 -97 -871 -911
-814 -813 -838 -837 -911 -871 -100 -48 -167 -63 -275 -62 -159 1 -302 61
-415 174 -182 182 -227 454 -114 688 36 74 59 99 600 642 309 311 567 575 574
588 6 13 9 35 5 50 -4 19 -176 197 -551 572 -300 300 -563 570 -583 600 -77
111 -106 210 -105 350 3 282 211 530 487 580 74 13 212 4 288 -19z m-1426
-826 c291 -74 484 -358 445 -653 -12 -92 -33 -155 -75 -229 -17 -30 -234 -256
-585 -608 -307 -308 -563 -570 -569 -582 -6 -12 -11 -32 -11 -44 0 -17 153
-176 568 -593 516 -518 572 -578 605 -642 48 -94 70 -180 70 -284 1 -158 -51
-292 -158 -408 -69 -74 -141 -122 -243 -160 -58 -22 -83 -26 -192 -26 -106 0
-135 3 -190 23 -141 50 -141 50 -1001 910 -748 749 -819 822 -851 886 -56 108
-72 175 -72 295 -1 155 33 264 119 379 18 25 395 406 837 847 868 865 842 842
993 885 77 22 231 24 310 4z"/>
<path d="M4122 5692 c-141 -51 -231 -190 -220 -337 10 -123 0 -110 612 -725
445 -446 570 -577 592 -620 27 -50 29 -64 29 -160 0 -96 -2 -110 -29 -160 -22
-43 -149 -176 -596 -625 -637 -640 -605 -600 -605 -750 0 -60 6 -92 22 -127
30 -66 96 -133 162 -165 48 -24 69 -28 141 -28 149 0 93 -48 1001 862 906 908
844 835 844 993 0 158 63 85 -848 997 -687 688 -819 816 -862 834 -70 31 -174
35 -243 11z"/>
</g>
</svg>
