<?xml version="1.0" encoding="utf-8"?>
<!-- Generator: Adobe Illustrator 16.0.0, SVG Export Plug-In . SVG Version: 6.00 Build 0)  -->
<!DOCTYPE svg PUBLIC "-//W3C//DTD SVG 1.1//EN" "http://www.w3.org/Graphics/SVG/1.1/DTD/svg11.dtd">
<svg version="1.1" id="Layer_1" xmlns="http://www.w3.org/2000/svg" xmlns:xlink="http://www.w3.org/1999/xlink" x="0px" y="0px"
	 width="169.667px" height="169.667px" viewBox="0 0 169.667 169.667"
	 xml:space="preserve">
<g>
	<path fill="#FFFFFF" stroke="#F47D20" stroke-width="0.5" stroke-miterlimit="10" d="M101.547,32.871
		c2.059,0,3.99,0.799,5.441,2.252l36.439,36.439c1.473,1.475,2.264,3.458,2.229,5.586c-0.002,0.079-0.002,0.158,0,0.237
		c0.037,2.123-0.752,4.102-2.219,5.569l-36.445,36.446c-1.457,1.455-3.391,2.256-5.445,2.256c-2.053,0-3.984-0.801-5.439-2.255
		s-2.256-3.386-2.256-5.441s0.801-3.989,2.256-5.444l25.076-25.078c0.162-0.164,0.316-0.334,0.461-0.512
		c1.344-1.582,2.078-3.572,2.078-5.663c0-1.985-0.666-3.889-1.887-5.431c-0.193-0.258-0.406-0.502-0.637-0.733L96.105,46.004
		c-1.447-1.447-2.246-3.379-2.246-5.438c0-2.061,0.799-3.993,2.248-5.444C97.559,33.67,99.49,32.871,101.547,32.871 M101.547,25.943
		c-3.906,0-7.578,1.519-10.338,4.281c-5.701,5.702-5.701,14.979,0,20.679l25.092,25.095v0.015c0.307,0.327,0.494,0.767,0.494,1.251
		c0,0.492-0.195,0.939-0.51,1.269v0.008l-25.076,25.079c-2.764,2.763-4.285,6.436-4.285,10.342s1.523,7.58,4.287,10.342
		c2.762,2.76,6.434,4.281,10.336,4.281c3.904,0,7.576-1.521,10.34-4.281l36.449-36.449c2.91-2.914,4.313-6.763,4.246-10.587
		c0.066-3.833-1.338-7.682-4.254-10.601l-36.441-36.441C109.127,27.462,105.453,25.943,101.547,25.943L101.547,25.943z"/>
	<path fill="#FFFFFF" stroke="#F47D20" stroke-width="0.5" stroke-miterlimit="10" d="M53.361,98.548v-0.015
		c-0.307-0.327-0.494-0.767-0.494-1.251c0-0.492,0.195-0.939,0.51-1.269v-0.008l25.076-25.079c2.766-2.764,4.285-6.436,4.285-10.342
		s-1.523-7.581-4.287-10.342c-2.762-2.761-6.434-4.281-10.336-4.281c-3.904,0-7.576,1.521-10.34,4.281L21.326,86.692
		c-2.91,2.914-4.311,6.763-4.246,10.587c-0.064,3.833,1.338,7.682,4.254,10.601l36.441,36.441c2.762,2.763,6.434,4.281,10.34,4.281
		s7.578-1.519,10.338-4.281c5.703-5.702,5.703-14.979,0-20.679L53.361,98.548z"/>
</g>
</svg>
