<?xml version="1.0" encoding="utf-8"?>
<!-- Generator: Adobe Illustrator 16.0.0, SVG Export Plug-In . SVG Version: 6.00 Build 0)  -->
<!DOCTYPE svg PUBLIC "-//W3C//DTD SVG 1.1//EN" "http://www.w3.org/Graphics/SVG/1.1/DTD/svg11.dtd">
<svg version="1.1" id="Layer_1" xmlns="http://www.w3.org/2000/svg" xmlns:xlink="http://www.w3.org/1999/xlink" x="0px" y="0px"
	 width="169.667px" height="169.667px" viewBox="0 0 169.667 169.667" enable-background="new 0 0 169.667 169.667"
	 xml:space="preserve">
<g>
	<g>
		<path fill="#FFFFFF" stroke="#F47D20" stroke-width="0.5" stroke-miterlimit="10" d="M30.283,147.084
			c0.928,0,1.535,0.266,2.014,0.796c0.396,0.397,0.768,0.636,1.219,0.636c0.742,0,1.299-0.557,1.299-1.299
			c0-0.396-0.133-0.742-0.531-1.166c-0.795-0.9-2.225-1.617-4.027-1.617c-2.57,0-4.504,1.246-5.246,3.525
			c-0.266,0.795-0.398,1.802-0.398,3.153s0.133,2.358,0.398,3.153c0.742,2.278,2.676,3.523,5.246,3.523
			c1.803,0,3.232-0.715,4.027-1.616c0.398-0.423,0.531-0.768,0.531-1.165c0-0.742-0.557-1.299-1.299-1.299
			c-0.451,0-0.822,0.238-1.219,0.637c-0.479,0.529-1.086,0.794-2.014,0.794c-1.141,0-2.014-0.556-2.385-1.669
			c-0.213-0.636-0.266-1.378-0.266-2.358s0.053-1.723,0.266-2.358C28.27,147.641,29.143,147.084,30.283,147.084z"/>
		<path fill="#FFFFFF" stroke="#F47D20" stroke-width="0.5" stroke-miterlimit="10" d="M47.955,154.689
			c-0.186-0.344-0.266-0.609-0.266-1.272v-4.027c0-3.153-1.721-4.956-5.352-4.956c-1.75,0-3.074,0.398-3.896,0.876
			c-0.529,0.265-0.742,0.741-0.742,1.165c0,0.742,0.504,1.219,1.221,1.219c0.238,0,0.502-0.053,0.768-0.158
			c0.557-0.266,1.432-0.53,2.332-0.53c2.014,0,2.863,0.875,2.863,2.358v0.318c0,0.106-0.055,0.158-0.16,0.158H42.1
			c-3.152,0-5.088,1.326-5.088,4.082c0,2.438,1.617,3.867,4.637,3.867c1.723,0,3.021-0.529,3.764-1.404h0.025l0.424,0.637
			c0.293,0.424,0.717,0.61,1.246,0.61c0.848,0,1.484-0.584,1.484-1.379c0-0.291-0.08-0.583-0.24-0.874L47.955,154.689z
			 M44.883,153.364c0,1.352-1.088,2.015-2.811,2.015c-1.457,0-2.227-0.53-2.227-1.59c0-1.166,0.797-1.724,2.756-1.724h2.121
			c0.105,0,0.16,0.054,0.16,0.16V153.364z"/>
		<path fill="#FFFFFF" stroke="#F47D20" stroke-width="0.5" stroke-miterlimit="10" d="M57.811,150.874l2.889-4.002
			c0.238-0.317,0.371-0.662,0.371-0.98c0-0.688-0.529-1.298-1.299-1.298c-0.477,0-0.9,0.212-1.244,0.688l-2.412,3.313h-0.027
			l-2.41-3.313c-0.346-0.477-0.797-0.688-1.246-0.688c-0.77,0-1.324,0.609-1.324,1.298c0,0.318,0.131,0.663,0.369,0.98l2.916,4.002
			l-3.285,4.478c-0.24,0.345-0.373,0.663-0.373,0.98c0,0.716,0.557,1.3,1.326,1.3c0.451,0,0.9-0.212,1.244-0.663l2.783-3.816h0.027
			l2.781,3.816c0.346,0.451,0.77,0.663,1.246,0.663c0.768,0,1.324-0.584,1.324-1.3c0-0.317-0.133-0.636-0.371-0.98L57.811,150.874z"
			/>
		<path fill="#FFFFFF" stroke="#F47D20" stroke-width="0.5" stroke-miterlimit="10" d="M66.104,139.24
			c-0.982,0-1.777,0.796-1.777,1.776c0,0.979,0.795,1.775,1.777,1.775c0.979,0,1.773-0.796,1.773-1.775
			C67.877,140.036,67.082,139.24,66.104,139.24z"/>
		<path fill="#FFFFFF" stroke="#F47D20" stroke-width="0.5" stroke-miterlimit="10" d="M66.104,144.594
			c-0.877,0-1.484,0.583-1.484,1.563v9.91c0,0.98,0.607,1.564,1.484,1.564c0.873,0,1.482-0.584,1.482-1.564v-9.91
			C67.586,145.177,66.977,144.594,66.104,144.594z"/>
		<path fill="#FFFFFF" stroke="#F47D20" stroke-width="0.5" stroke-miterlimit="10" d="M77.814,150.874l2.887-4.002
			c0.238-0.317,0.373-0.662,0.373-0.98c0-0.688-0.533-1.298-1.299-1.298c-0.479,0-0.902,0.212-1.246,0.688l-2.412,3.313h-0.025
			l-2.412-3.313c-0.344-0.477-0.795-0.688-1.246-0.688c-0.768,0-1.324,0.609-1.324,1.298c0,0.318,0.133,0.663,0.369,0.98
			l2.918,4.002l-3.287,4.478c-0.238,0.345-0.371,0.663-0.371,0.98c0,0.716,0.557,1.3,1.324,1.3c0.451,0,0.9-0.212,1.246-0.663
			l2.783-3.816h0.025l2.781,3.816c0.346,0.451,0.77,0.663,1.246,0.663c0.768,0,1.326-0.584,1.326-1.3
			c0-0.317-0.133-0.636-0.371-0.98L77.814,150.874z"/>
		<path fill="#FFFFFF" stroke="#F47D20" stroke-width="0.5" stroke-miterlimit="10" d="M86.105,144.594
			c-0.875,0-1.486,0.583-1.486,1.563v9.91c0,0.98,0.611,1.564,1.486,1.564s1.484-0.584,1.484-1.564v-9.91
			C87.59,145.177,86.98,144.594,86.105,144.594z"/>
		<circle fill="#FFFFFF" stroke="#F47D20" stroke-width="0.5" stroke-miterlimit="10" cx="86.105" cy="141.016" r="1.776"/>
		<path fill="#FFFFFF" stroke="#F47D20" stroke-width="0.5" stroke-miterlimit="10" d="M111.752,144.434
			c-1.828,0-3.1,0.637-4.08,1.696h-0.025c-0.77-1.086-1.988-1.696-3.5-1.696c-1.695,0-2.809,0.69-3.363,1.484h-0.029
			c-0.129-0.768-0.607-1.324-1.482-1.324c-0.873,0-1.484,0.583-1.484,1.563v9.91c0,0.98,0.611,1.564,1.484,1.564
			c0.875,0,1.482-0.584,1.482-1.564v-6.2c0-1.644,0.902-2.783,2.439-2.783c1.59,0,2.41,1.14,2.41,2.783v6.2
			c0,0.98,0.611,1.564,1.486,1.564c0.873,0,1.484-0.584,1.484-1.564v-6.2c0-1.644,0.898-2.783,2.438-2.783
			c1.59,0,2.412,1.14,2.412,2.783v6.2c0,0.98,0.607,1.564,1.482,1.564s1.484-0.584,1.484-1.564v-6.89
			C116.391,146.448,114.723,144.434,111.752,144.434z"/>
		<circle fill="#FFFFFF" stroke="#F47D20" stroke-width="0.5" stroke-miterlimit="10" cx="121.605" cy="141.016" r="1.776"/>
		<path fill="#FFFFFF" stroke="#F47D20" stroke-width="0.5" stroke-miterlimit="10" d="M121.605,144.594
			c-0.875,0-1.482,0.583-1.482,1.563v9.91c0,0.98,0.607,1.564,1.482,1.564c0.877,0,1.484-0.584,1.484-1.564v-9.91
			C123.09,145.177,122.482,144.594,121.605,144.594z"/>
		<path fill="#FFFFFF" stroke="#F47D20" stroke-width="0.5" stroke-miterlimit="10" d="M136.047,139.347
			c-0.875,0-1.484,0.584-1.484,1.563v5.034h-0.025c-0.557-0.82-1.643-1.511-3.445-1.511c-2.119,0-3.711,1.221-4.373,3.234
			c-0.316,0.979-0.451,2.014-0.451,3.444c0,1.432,0.135,2.464,0.451,3.445c0.662,2.014,2.254,3.231,4.373,3.231
			c1.803,0,2.834-0.636,3.445-1.51h0.025c0.133,0.822,0.609,1.353,1.484,1.353s1.482-0.584,1.482-1.564V140.91
			C137.529,139.931,136.922,139.347,136.047,139.347z M134.299,153.443c-0.398,1.22-1.246,1.696-2.385,1.696
			c-1.113,0-1.961-0.477-2.359-1.696c-0.186-0.556-0.264-1.324-0.264-2.331s0.078-1.775,0.264-2.333
			c0.398-1.218,1.246-1.695,2.359-1.695c1.139,0,1.986,0.478,2.385,1.695c0.186,0.558,0.264,1.326,0.264,2.333
			S134.484,152.888,134.299,153.443z"/>
		<circle fill="#FFFFFF" stroke="#F47D20" stroke-width="0.5" stroke-miterlimit="10" cx="142.881" cy="141.016" r="1.776"/>
		<path fill="#FFFFFF" stroke="#F47D20" stroke-width="0.5" stroke-miterlimit="10" d="M142.881,144.594
			c-0.875,0-1.484,0.583-1.484,1.563v9.91c0,0.98,0.609,1.564,1.484,1.564s1.482-0.584,1.482-1.564v-9.91
			C144.363,145.177,143.756,144.594,142.881,144.594z"/>
	</g>
	<g>
		<path fill="#FFFFFF" stroke="#F47D20" stroke-width="0.5" stroke-miterlimit="10" d="M100.084,22.736
			c1.875,0,3.639,0.729,4.963,2.055l33.24,33.242c1.346,1.347,2.068,3.155,2.035,5.096c-0.002,0.073-0.002,0.146,0,0.217
			c0.033,1.938-0.686,3.743-2.023,5.081l-33.25,33.249c-1.328,1.327-3.092,2.058-4.965,2.058s-3.637-0.729-4.965-2.057
			c-1.326-1.326-2.057-3.089-2.057-4.964c0-1.876,0.73-3.639,2.057-4.967l22.877-22.878c0.148-0.149,0.289-0.306,0.42-0.467
			c1.227-1.443,1.896-3.26,1.896-5.167c0-1.811-0.607-3.547-1.721-4.953c-0.178-0.236-0.371-0.459-0.58-0.669L95.119,34.718
			c-1.322-1.321-2.051-3.083-2.051-4.962c0-1.88,0.729-3.643,2.053-4.966C96.443,23.466,98.205,22.736,100.084,22.736
			 M100.084,16.417c-3.564,0-6.916,1.385-9.434,3.905c-5.201,5.202-5.201,13.666,0,18.864l22.893,22.894v0.014
			c0.279,0.298,0.451,0.699,0.451,1.141c0,0.449-0.178,0.857-0.467,1.158V64.4L90.65,87.277c-2.521,2.521-3.908,5.872-3.908,9.436
			s1.391,6.915,3.91,9.435c2.52,2.518,5.869,3.906,9.432,3.906c3.561,0,6.91-1.389,9.432-3.906l33.252-33.252
			c2.652-2.657,3.932-6.169,3.873-9.658c0.059-3.496-1.221-7.008-3.881-9.671l-33.244-33.244
			C106.996,17.802,103.646,16.417,100.084,16.417L100.084,16.417z"/>
		<path fill="#FFFFFF" stroke="#F47D20" stroke-width="0.5" stroke-miterlimit="10" d="M56.125,82.651V82.64
			c-0.281-0.3-0.451-0.7-0.451-1.143c0-0.449,0.178-0.856,0.465-1.157v-0.007l22.875-22.879c2.523-2.521,3.91-5.871,3.91-9.435
			s-1.391-6.916-3.91-9.435s-5.871-3.906-9.43-3.906c-3.561,0-6.912,1.388-9.432,3.906L26.9,71.836
			c-2.654,2.658-3.934,6.17-3.875,9.658c-0.059,3.497,1.221,7.009,3.883,9.671l33.244,33.244c2.518,2.521,5.867,3.906,9.432,3.906
			s6.912-1.386,9.43-3.906c5.203-5.202,5.203-13.665,0-18.864L56.125,82.651z"/>
	</g>
</g>
</svg>
