<?xml version="1.0" encoding="utf-8"?>
<!-- Generator: Adobe Illustrator 16.0.0, SVG Export Plug-In . SVG Version: 6.00 Build 0)  -->
<!DOCTYPE svg PUBLIC "-//W3C//DTD SVG 1.1//EN" "http://www.w3.org/Graphics/SVG/1.1/DTD/svg11.dtd">
<svg version="1.1" id="Layer_1" xmlns="http://www.w3.org/2000/svg" xmlns:xlink="http://www.w3.org/1999/xlink" x="0px" y="0px"
	 width="169.667px" height="169.667px" viewBox="0 0 169.667 169.667" enable-background="new 0 0 169.667 169.667"
	 xml:space="preserve" fill="white">
<g>
	<path d="M101.55,32.871c2.058,0,3.989,0.799,5.44,2.252l36.439,36.439c1.474,1.475,2.265,3.458,2.229,5.586
		c-0.002,0.079-0.002,0.158,0,0.237c0.037,2.123-0.752,4.102-2.219,5.569l-36.445,36.446c-1.457,1.455-3.391,2.256-5.444,2.256
		s-3.985-0.801-5.44-2.255s-2.256-3.386-2.256-5.441s0.801-3.989,2.256-5.444l25.076-25.078c0.163-0.164,0.316-0.334,0.462-0.512
		c1.343-1.582,2.077-3.572,2.077-5.663c0-1.985-0.666-3.889-1.887-5.431c-0.193-0.258-0.405-0.502-0.636-0.733L96.107,46.004
		c-1.447-1.447-2.246-3.379-2.246-5.438c0-2.061,0.799-3.993,2.249-5.444S99.493,32.871,101.55,32.871 M101.55,25.943
		c-3.906,0-7.578,1.519-10.339,4.281c-5.701,5.702-5.701,14.979,0,20.679l25.093,25.095v0.015c0.306,0.327,0.494,0.767,0.494,1.251
		c0,0.492-0.195,0.939-0.511,1.269v0.008l-25.076,25.079c-2.764,2.763-4.284,6.436-4.284,10.342s1.523,7.58,4.286,10.342
		c2.762,2.76,6.435,4.281,10.337,4.281c3.904,0,7.576-1.521,10.339-4.281l36.449-36.449c2.91-2.914,4.313-6.763,4.246-10.587
		c0.066-3.833-1.338-7.682-4.253-10.601l-36.442-36.441C109.129,27.462,105.456,25.943,101.55,25.943L101.55,25.943z"/>
	<path d="M53.363,98.548v-0.015c-0.307-0.327-0.494-0.767-0.494-1.251c0-0.492,0.195-0.939,0.511-1.269v-0.008l25.076-25.079
		c2.765-2.764,4.284-6.436,4.284-10.342s-1.523-7.581-4.286-10.342c-2.762-2.761-6.435-4.281-10.337-4.281
		c-3.903,0-7.576,1.521-10.339,4.281l-36.45,36.449c-2.91,2.914-4.311,6.763-4.246,10.587c-0.064,3.833,1.339,7.682,4.255,10.601
		l36.441,36.441c2.761,2.763,6.433,4.281,10.339,4.281s7.578-1.519,10.339-4.281c5.702-5.702,5.702-14.979,0-20.679L53.363,98.548z"
		/>
</g>
</svg>
